<?xml version="1.0" standalone="no"?>
<!DOCTYPE svg PUBLIC "-//W3C//DTD SVG 20010904//EN"
 "http://www.w3.org/TR/2001/REC-SVG-20010904/DTD/svg10.dtd">
<svg version="1.0" xmlns="http://www.w3.org/2000/svg"
 width="127.000000pt" height="127.000000pt" viewBox="0 0 127.000000 127.000000"
 preserveAspectRatio="xMidYMid meet">
<metadata>
Created by potrace 1.14, written by Peter Selinger 2001-2017
</metadata>
<g transform="translate(0.000000,127.000000) scale(0.100000,-0.100000)"
fill="#000000" stroke="none">
<path d="M608 1215 c-3 -3 -16 -8 -29 -10 -24 -5 -80 -31 -108 -50 -26 -19
-111 -106 -111 -115 0 -5 -6 -15 -12 -22 -42 -43 -65 -203 -42 -290 6 -26 9
-50 5 -54 -3 -4 -1 -4 6 -1 7 5 16 -6 23 -27 12 -36 80 -116 98 -116 7 0 12
-6 12 -13 0 -7 9 -13 20 -14 20 -2 26 8 13 21 -4 3 -8 12 -9 19 -1 7 -8 35
-16 62 -8 28 -14 73 -12 102 3 55 41 156 55 147 5 -3 6 2 3 10 -4 9 1 18 10
22 9 3 13 10 10 15 -3 5 0 9 5 9 6 0 11 6 11 13 0 7 13 21 30 30 16 10 35 23
42 30 32 30 111 55 193 63 33 2 61 7 64 10 4 3 -12 20 -34 37 -21 18 -63 52
-91 78 -41 35 -61 46 -91 47 -22 2 -42 0 -45 -3z"/>
<path d="M722 954 c-73 -19 -128 -50 -175 -99 -43 -45 -51 -64 -27 -62 11 1
20 4 20 7 0 9 58 15 146 14 124 0 217 -51 287 -157 40 -60 64 -142 61 -204 -2
-24 1 -43 6 -43 4 0 23 18 41 40 19 23 48 56 66 75 54 58 62 80 48 139 -39
165 -184 290 -350 300 -42 3 -91 -1 -123 -10z"/>
<path d="M207 852 c-9 -10 -14 -22 -10 -25 3 -4 -1 -7 -9 -7 -9 0 -18 -9 -21
-21 -3 -12 -10 -18 -16 -14 -6 3 -11 0 -11 -7 0 -7 -16 -31 -35 -52 -19 -22
-35 -51 -37 -65 -5 -42 25 -141 56 -186 32 -45 76 -97 76 -88 0 4 6 -2 14 -13
20 -29 114 -73 175 -83 105 -17 210 5 281 58 40 29 84 71 75 71 -4 0 1 7 9 16
20 19 22 52 3 36 -6 -6 -28 -13 -47 -15 -19 -3 -35 -6 -35 -7 0 -5 -52 -11
-90 -11 -48 1 -72 5 -81 14 -4 4 -16 7 -26 7 -37 0 -178 117 -171 142 2 4 -2
8 -7 8 -10 0 -28 37 -35 73 -2 10 -7 28 -11 40 -4 12 -8 45 -8 74 -1 63 -15
82 -39 55z"/>
<path d="M788 725 c2 -14 8 -25 12 -25 7 0 12 -32 26 -140 1 -13 -2 -30 -7
-37 -6 -7 -8 -17 -4 -22 3 -6 0 -21 -7 -33 -7 -13 -11 -26 -10 -30 1 -5 -1 -8
-6 -8 -4 0 -13 -13 -20 -29 -16 -36 -87 -107 -124 -124 -15 -6 -28 -15 -28
-18 0 -7 -69 -24 -82 -21 -5 1 -8 -2 -8 -6 0 -5 -28 -7 -62 -6 -35 1 -67 -1
-71 -3 -5 -3 10 -19 32 -36 23 -17 41 -35 41 -39 0 -4 7 -8 15 -8 8 0 15 -4
15 -9 0 -5 23 -25 50 -45 52 -37 56 -38 142 -20 15 3 31 5 34 4 4 -1 11 5 16
14 5 9 16 16 25 16 16 0 113 69 113 80 0 4 8 15 18 26 10 10 31 46 47 78 24
50 30 74 31 141 1 46 -4 99 -12 120 -7 21 -11 42 -8 47 3 4 1 8 -5 8 -5 0 -13
10 -16 21 -10 31 -111 129 -133 129 -15 0 -18 -5 -14 -25z"/>
</g>
</svg>
