<svg width="11" height="8" viewBox="0 0 11 8" fill="none" xmlns="http://www.w3.org/2000/svg">
<path d="M10.2527 1.00543C10.1053 0.848116 9.90532 0.759743 9.69684 0.759743C9.48836 0.759743 9.28842 0.848117 9.14098 1.00543L5.24911 5.1591L1.35725 1.00543C1.20897 0.852575 1.01036 0.767996 0.804214 0.769908C0.598066 0.77182 0.400868 0.86007 0.255094 1.01565C0.10932 1.17123 0.0266337 1.38169 0.0248418 1.60171C0.0230508 1.82173 0.102298 2.03369 0.245517 2.19195L4.69325 6.93889C4.84069 7.0962 5.04063 7.18457 5.24911 7.18457C5.4576 7.18457 5.65754 7.0962 5.80498 6.93889L10.2527 2.19195C10.4001 2.03459 10.4829 1.8212 10.4829 1.59869C10.4829 1.37618 10.4001 1.16279 10.2527 1.00543Z" fill="#464646"/>
</svg>
