<svg width="16" height="13" viewBox="0 0 16 13" fill="none" xmlns="http://www.w3.org/2000/svg">
<path id="Vector" d="M14.6312 0.980713H1.36848C1.11723 0.980713 0.876272 1.08052 0.698612 1.25818C0.520951 1.43584 0.421143 1.6768 0.421143 1.92805V11.4014C0.421143 11.6527 0.520951 11.8936 0.698612 12.0713C0.876272 12.249 1.11723 12.3488 1.36848 12.3488H14.6312C14.8825 12.3488 15.1234 12.249 15.3011 12.0713C15.4787 11.8936 15.5786 11.6527 15.5786 11.4014V1.92805C15.5786 1.6768 15.4787 1.43584 15.3011 1.25818C15.1234 1.08052 14.8825 0.980713 14.6312 0.980713ZM13.9018 11.4014H2.15477L5.47046 7.97207L4.78837 7.31367L1.36848 10.852V2.64803L7.25619 8.50732C7.43368 8.68376 7.67379 8.7828 7.92406 8.7828C8.17434 8.7828 8.41444 8.68376 8.59194 8.50732L14.6312 2.50119V10.7904L11.145 7.3042L10.4771 7.97207L13.9018 11.4014ZM1.98899 1.92805H13.8639L7.92406 7.83471L1.98899 1.92805Z" fill="#491521"/>
</svg>
