<svg width="17" height="19" viewBox="0 0 17 19" fill="none" xmlns="http://www.w3.org/2000/svg">
<g id="gridicons:create">
<path id="Vector" d="M14.3273 10.7169V14.4414C14.3273 14.8365 14.1836 15.2154 13.9277 15.4948C13.6718 15.7742 13.3247 15.9311 12.9628 15.9311H3.41137C3.04948 15.9311 2.70242 15.7742 2.44653 15.4948C2.19063 15.2154 2.04688 14.8365 2.04688 14.4414V4.01296C2.04688 3.61785 2.19063 3.23892 2.44653 2.95954C2.70242 2.68015 3.04948 2.52319 3.41137 2.52319H6.82261V4.01296H3.41137V14.4414H12.9628V10.7169H14.3273Z" fill="#491521"/>
<path id="Vector_2" d="M14.3269 5.50274H11.5979V2.52319H10.2334V5.50274H7.50439V6.99251H10.2334V9.97205H11.5979V6.99251H14.3269V5.50274Z" fill="#491521"/>
</g>
</svg>
