<svg width="34" height="34" viewBox="0 0 34 34" fill="none" xmlns="http://www.w3.org/2000/svg">
<circle cx="17.3193" cy="16.9099" r="15.8994" transform="rotate(-90 17.3193 16.9099)" stroke="#491521" stroke-width="0.88915"/>
<path d="M9.57812 20.0142L9.57812 13.7756C9.57812 11.399 11.5091 9.46798 13.8857 9.46798L20.1243 9.46798C21.2668 9.46798 22.3624 9.92181 23.1703 10.7296C23.9781 11.5375 24.4319 12.6331 24.4319 13.7756L24.4319 20.0142C24.4319 22.3908 22.5009 24.3218 20.1243 24.3218L13.8857 24.3218C12.7433 24.3218 11.6476 23.8679 10.8398 23.0601C10.032 22.2523 9.57812 21.1566 9.57812 20.0142ZM11.0635 20.1627C11.0635 20.8718 11.3452 21.5519 11.8466 22.0533C12.348 22.5547 13.0281 22.8364 13.7372 22.8364L20.2729 22.8364C21.7508 22.8364 22.9465 21.6407 22.9465 20.1627L22.9465 13.627C22.9465 12.9179 22.6649 12.2379 22.1634 11.7365C21.662 11.235 20.982 10.9534 20.2729 10.9534L13.7372 10.9534C12.2592 10.9534 11.0635 12.1491 11.0635 13.627L11.0635 20.1627ZM12.1775 12.9958C12.1775 12.7495 12.2753 12.5134 12.4495 12.3393C12.6236 12.1652 12.8597 12.0674 13.1059 12.0674C13.3521 12.0674 13.5883 12.1652 13.7624 12.3393C13.9365 12.5134 14.0343 12.7495 14.0343 12.9958C14.0343 13.242 13.9365 13.4781 13.7624 13.6522C13.5883 13.8263 13.3521 13.9241 13.1059 13.9241C12.8597 13.9241 12.6236 13.8263 12.4495 13.6522C12.2753 13.4781 12.1775 13.242 12.1775 12.9958ZM13.2916 16.8949C13.2916 15.91 13.6828 14.9655 14.3792 14.2691C15.0756 13.5727 16.0202 13.1814 17.005 13.1814C17.9899 13.1814 18.9344 13.5727 19.6308 14.2691C20.3272 14.9655 20.7185 15.91 20.7185 16.8949C20.7185 17.8797 20.3272 18.8243 19.6308 19.5207C18.9344 20.2171 17.9899 20.6083 17.005 20.6083C16.0202 20.6083 15.0756 20.2171 14.3792 19.5207C13.6828 18.8243 13.2916 17.8797 13.2916 16.8949ZM14.777 16.8949C14.777 17.4858 15.0117 18.0525 15.4295 18.4704C15.8474 18.8882 16.4141 19.1229 17.005 19.1229C17.5959 19.1229 18.1627 18.8882 18.5805 18.4704C18.9984 18.0525 19.2331 17.4858 19.2331 16.8949C19.2331 16.304 18.9984 15.7372 18.5805 15.3194C18.1627 14.9015 17.5959 14.6668 17.005 14.6668C16.4141 14.6668 15.8474 14.9015 15.4295 15.3194C15.0117 15.7372 14.777 16.304 14.777 16.8949Z" fill="#491521"/>
</svg>
