<svg width="15" height="18" viewBox="0 0 15 18" fill="none" xmlns="http://www.w3.org/2000/svg">
<path d="M13.5136 2.45203C12.6277 2.45115 11.7496 2.61808 10.9258 2.94399C9.7151 1.07423 7.88212 0.14089 7.79477 0.0972113C7.66701 0.0332836 7.52612 0 7.38327 0C7.24041 0 7.09952 0.0332836 6.97177 0.0972113C6.88441 0.14089 5.05144 1.07423 3.8407 2.94399C3.01691 2.61808 2.13884 2.45115 1.25293 2.45203C1.00905 2.45203 0.775154 2.54891 0.602704 2.72136C0.430255 2.89381 0.333374 3.1277 0.333374 3.37158V6.43675C0.335541 8.14667 0.958153 9.7977 2.0856 11.0833C3.21304 12.3688 4.76871 13.2016 6.46372 13.4269V15.3702L4.11656 14.197C3.89899 14.092 3.64885 14.0769 3.4202 14.1548C3.19155 14.2328 3.00277 14.3976 2.89465 14.6136C2.78654 14.8297 2.76777 15.0796 2.84242 15.3093C2.91706 15.5391 3.07912 15.7302 3.29356 15.8415L6.97177 17.6806C7.09952 17.7445 7.24041 17.7778 7.38327 17.7778C7.52612 17.7778 7.66701 17.7445 7.79477 17.6806L11.473 15.8415C11.5827 15.7885 11.6809 15.7142 11.7617 15.623C11.8425 15.5318 11.9044 15.4254 11.9437 15.31C11.9831 15.1947 11.9991 15.0727 11.9908 14.9511C11.9826 14.8295 11.9502 14.7107 11.8957 14.6017C11.8412 14.4927 11.7655 14.3957 11.6731 14.3162C11.5807 14.2367 11.4734 14.1764 11.3575 14.1387C11.2416 14.1011 11.1194 14.0868 10.9979 14.0968C10.8764 14.1068 10.7582 14.1409 10.65 14.197L8.30282 15.3702V13.4269C9.99783 13.2016 11.5535 12.3688 12.6809 11.0833C13.8084 9.7977 14.431 8.14667 14.4332 6.43675V3.37158C14.4332 3.1277 14.3363 2.89381 14.1638 2.72136C13.9914 2.54891 13.7575 2.45203 13.5136 2.45203ZM7.38327 1.98766C7.8714 2.30643 8.69593 2.93096 9.31509 3.84208C8.5272 4.42787 7.8694 5.17073 7.38327 6.02372C6.8969 5.1709 6.23914 4.42808 5.45144 3.84208C6.07061 2.93096 6.89514 2.30643 7.38327 1.98766ZM2.17248 6.43675V4.37236C3.37516 4.58966 4.46344 5.22212 5.24764 6.15952C6.03183 7.09691 6.4622 8.27977 6.46372 9.50192V11.5663C5.2611 11.3489 4.1729 10.7164 3.38873 9.77901C2.60457 8.84165 2.17415 7.65886 2.17248 6.43675ZM12.5941 6.43675C12.5924 7.65886 12.162 8.84165 11.3778 9.77901C10.5936 10.7164 9.50543 11.3489 8.30282 11.5663V9.50192C8.30434 8.27977 8.73471 7.09691 9.5189 6.15952C10.3031 5.22212 11.3914 4.58966 12.5941 4.37236V6.43675Z" fill="white"/>
</svg>
