<svg width="25" height="18" viewBox="0 0 25 18" fill="none" xmlns="http://www.w3.org/2000/svg">
<path d="M24.1125 8.85229C23.9894 8.63441 23.8246 8.44356 23.6276 8.29091C23.4307 8.13826 23.2056 8.02689 22.9655 7.96332C22.3916 7.81287 21.8017 7.73401 21.2088 7.72852C21.4242 6.37148 21.326 4.98247 20.9221 3.67016C20.7765 3.20926 20.4665 2.81965 20.0523 2.57725C19.6381 2.33484 19.1495 2.25702 18.6817 2.35893C17.8 2.55561 16.9552 2.89391 16.1795 3.36095C15.5557 2.20278 14.6995 1.18909 13.6658 0.384827C13.3345 0.134976 12.9322 0 12.5189 0C12.1055 0 11.7032 0.134976 11.3719 0.384827C10.3382 1.18909 9.48201 2.20278 8.85823 3.36095C8.08342 2.89386 7.23962 2.55524 6.35887 2.35796C5.89092 2.2561 5.40222 2.33406 4.98804 2.57665C4.57386 2.81925 4.26388 3.20908 4.11853 3.67016C3.71456 4.98247 3.61642 6.37148 3.83179 7.72852C3.23798 7.73378 2.64704 7.81263 2.07221 7.96332C1.83214 8.02689 1.60703 8.13826 1.41009 8.29091C1.21314 8.44356 1.04832 8.63441 0.925271 8.85229C0.798031 9.07377 0.715608 9.31861 0.682792 9.57258C0.649976 9.82654 0.667421 10.0846 0.734115 10.3317C1.07342 11.6033 2.11044 14.019 5.23966 15.909C8.32873 17.7778 11.0623 17.7778 12.5265 17.7778C13.9908 17.7778 16.709 17.7778 19.7971 15.909C22.9263 14.019 23.9634 11.6033 24.3027 10.3317C24.3695 10.0846 24.3871 9.82664 24.3544 9.57268C24.3218 9.31871 24.2395 9.07384 24.1125 8.85229ZM6.41717 13.9175C4.28674 12.6304 3.42081 11.1027 3.07195 10.1152C3.53146 10.041 3.99842 10.0261 4.46165 10.0708C4.69231 10.66 4.96544 11.2313 5.27884 11.7801C5.80405 12.6979 6.43234 13.5513 7.15121 14.3233C6.90844 14.2026 6.66376 14.0673 6.41717 13.9175ZM7.83555 11.5231C7.63484 11.2332 7.44177 10.9433 7.26208 10.6254C5.7682 7.98941 5.9087 5.8868 6.21073 4.70987C6.83743 4.89586 7.43333 5.17494 7.97892 5.53797C7.68734 6.60272 7.5426 7.70307 7.54882 8.80785C7.54465 9.72087 7.64082 10.6315 7.83555 11.5231ZM12.5189 15.1949C11.5898 14.4151 9.84268 12.4623 9.84268 8.80495C9.84268 5.18915 11.5631 3.22954 12.5189 2.4198C13.4746 3.22954 15.195 5.18915 15.195 8.80495C15.195 12.4633 13.4479 14.418 12.5189 15.1978V15.1949ZM17.2022 11.5231C17.3969 10.6315 17.4931 9.72087 17.4889 8.80785C17.4951 7.70307 17.3504 6.60272 17.0588 5.53797C17.6044 5.1747 18.2003 4.8953 18.827 4.70891C19.1262 5.8868 19.2667 7.99424 17.7699 10.6254C17.594 10.9394 17.401 11.238 17.2022 11.5231ZM18.6225 13.9175C18.3778 14.0653 18.136 14.1987 17.898 14.3195C18.6139 13.5482 19.2396 12.6961 19.7627 11.7801C20.0761 11.2313 20.3492 10.66 20.5799 10.0708C21.0431 10.0261 21.5101 10.041 21.9696 10.1152C21.6169 11.1027 20.751 12.6304 18.6206 13.9175H18.6225Z" fill="white"/>
</svg>
