<svg width="27" height="27" viewBox="0 0 27 27" fill="none" xmlns="http://www.w3.org/2000/svg">
<path d="M0 13.125C0 15.7063 0.74375 18.1125 2.0125 20.125H24.1938C25.4625 18.1125 26.2063 15.7063 26.2063 13.125C26.2063 10.5437 25.4625 8.1375 24.1938 6.125H2.0125C0.74375 8.1375 0 10.5437 0 13.125Z" fill="#FFCE31"/>
<path d="M24.2375 6.125C21.9187 2.45 17.8062 0 13.125 0C8.4437 0 4.3312 2.45 2.01245 6.125H24.2375ZM2.01245 20.125C4.3312 23.8 8.4437 26.25 13.125 26.25C17.8062 26.25 21.9187 23.8 24.2375 20.125H2.01245Z" fill="#ED4C5C"/>
<path d="M3.15002 11.6812H4.55002V12.4687H3.15002V11.6812ZM3.15002 17.4562H4.59377V18.1999H3.15002V17.4562Z" fill="#C8B100"/>
<path d="M3.0188 16.2312C2.88755 16.3187 2.80005 16.4062 2.80005 16.45C2.80005 16.4937 2.8438 16.5375 2.9313 16.5812C3.0188 16.625 3.1063 16.7125 3.06255 16.8C3.15005 16.7125 3.1938 16.625 3.1938 16.5375C3.1938 16.4062 3.1063 16.275 3.0188 16.2312Z" fill="#ED4C5C"/>
<path d="M3.36877 12.4688H4.37502V17.4563H3.36877V12.4688Z" fill="white"/>
<path d="M5.42499 14.3063C5.20624 14.2188 4.81249 14.1312 4.37499 14.1312C4.24374 14.1312 4.06874 14.1313 3.89374 14.175C3.28124 14.2625 2.79999 14.525 2.84374 14.7L2.62499 14.2188C2.58124 14 3.10624 13.7375 3.76249 13.6062C3.98124 13.5625 4.19999 13.5625 4.37499 13.5625C4.81249 13.5625 5.20624 13.6062 5.42499 13.6937V14.3063Z" fill="#ED4C5C"/>
<path d="M3.3687 14.9625C3.1062 14.9625 2.88745 14.875 2.88745 14.7438C2.88745 14.6563 2.97495 14.525 3.14995 14.4375H3.41245L3.3687 14.9625ZM4.37495 14.5687C4.54995 14.6125 4.6812 14.6562 4.7687 14.7C4.81245 14.7437 4.63745 14.9188 4.37495 15.05V14.5687Z" fill="#ED4C5C"/>
<path d="M2.71254 15.925C2.66879 15.8375 2.97504 15.6625 3.36879 15.5312C3.54379 15.4875 3.67504 15.4 3.89379 15.3125C4.41879 15.0937 4.85629 14.7875 4.76879 14.7L4.85629 15.225C4.90004 15.3125 4.55004 15.575 4.02504 15.8375C3.85004 15.925 3.54379 16.0562 3.36879 16.1C3.06254 16.1875 2.80004 16.3625 2.80004 16.4062L2.71254 15.925Z" fill="#ED4C5C"/>
<path d="M12.5562 11.6812H13.9562V12.4687H12.5562V11.6812ZM12.5125 17.4562H13.9562V18.1999H12.5125V17.4562Z" fill="#C8B100"/>
<path d="M14.0875 16.2312C14.2187 16.3187 14.3062 16.4062 14.3062 16.45C14.3062 16.4937 14.2625 16.5375 14.175 16.5812C14.0875 16.6687 14 16.8 14.0437 16.8437C13.9562 16.7562 13.9125 16.6687 13.9125 16.5812C13.9125 16.4062 14 16.275 14.0875 16.2312Z" fill="#ED4C5C"/>
<path d="M12.7312 12.4688H13.7375V17.4563H12.7312V12.4688Z" fill="white"/>
<path d="M11.6813 14.3063C11.9 14.2188 12.2938 14.1312 12.7313 14.1312C12.8625 14.1312 13.0375 14.1313 13.2125 14.175C13.825 14.2625 14.3063 14.525 14.2625 14.7L14.4813 14.175C14.525 13.9563 14 13.6938 13.3438 13.5625H12.7313C12.2938 13.5625 11.9 13.6062 11.6813 13.6937V14.3063Z" fill="#ED4C5C"/>
<path d="M13.7375 14.9625C14 14.9625 14.2188 14.875 14.2188 14.7438C14.2188 14.6563 14.1313 14.525 13.9563 14.4375H13.6938L13.7375 14.9625ZM12.7313 14.5687C12.5563 14.6125 12.425 14.6562 12.3375 14.7C12.2938 14.7437 12.4688 14.9188 12.7313 15.05V14.5687Z" fill="#ED4C5C"/>
<path d="M14.3937 15.9251C14.4375 15.8376 14.1312 15.6626 13.7375 15.5313C13.5625 15.4876 13.4312 15.4001 13.2125 15.3126C12.6875 15.0938 12.25 14.7876 12.3375 14.7001L12.25 15.2251C12.2062 15.3126 12.5562 15.5751 13.0812 15.8376C13.2562 15.9251 13.5625 16.0563 13.7375 16.1001C14.0437 16.1876 14.3062 16.4063 14.2625 16.4501L14.3937 15.9251ZM8.53123 8.88135C9.36248 8.88135 11.0687 9.05635 11.6812 9.66885C11.025 11.2438 9.97498 10.5876 8.53123 10.5876C7.13123 10.5876 6.03748 11.2438 5.38123 9.66885C5.99373 9.05635 7.65623 8.88135 8.53123 8.88135Z" fill="#ED4C5C"/>
<path d="M10.675 10.6312C10.15 10.325 9.36248 10.2812 8.53123 10.2812C7.69998 10.2812 6.91248 10.3687 6.38748 10.6312L6.56248 11.375C7.04373 11.5062 7.74373 11.5938 8.53123 11.5938C9.31873 11.5938 9.97498 11.5062 10.5 11.375L10.675 10.6312ZM11.4187 8.75C11.2437 8.61875 10.8937 8.4875 10.5875 8.4875C10.4562 8.4875 10.325 8.4875 10.1937 8.53125C10.1937 8.53125 9.93123 8.18125 9.31873 8.18125C9.09998 8.18125 8.92498 8.225 8.74998 8.3125V8.26875C8.70623 8.18125 8.61873 8.09375 8.53123 8.09375C8.44373 8.09375 8.31248 8.225 8.31248 8.3125V8.35625C8.13748 8.26875 7.96248 8.225 7.74373 8.225C7.13123 8.225 6.86873 8.61875 6.86873 8.575C6.73748 8.53125 6.60623 8.53125 6.47498 8.53125C4.46248 8.53125 5.46873 9.8875 5.46873 9.8875L5.68748 9.625C5.20623 9.0125 5.64373 8.6625 6.51873 8.6625C6.64998 8.6625 6.73748 8.6625 6.82498 8.70625C6.51873 9.14375 7.08748 9.5375 7.08748 9.5375L7.21873 9.31875C6.91248 9.1 6.86873 8.35625 7.74373 8.35625C7.96248 8.35625 8.13748 8.4 8.31248 8.53125C8.31248 8.575 8.26873 9.1875 8.22498 9.275L8.57498 9.58125L8.92498 9.275C8.88123 9.14375 8.83748 8.575 8.83748 8.53125C8.96873 8.44375 9.18748 8.35625 9.40623 8.35625C10.325 8.35625 10.325 9.1 9.93123 9.31875L10.0625 9.5375C10.0625 9.5375 10.5437 9.14375 10.325 8.70625C10.4125 8.70625 10.5437 8.6625 10.6312 8.6625C11.6812 8.6625 11.725 9.45 11.4625 9.625L11.6375 9.8875C11.55 9.8875 12.0312 9.275 11.4187 8.75Z" fill="#C8B100"/>
<path d="M8.2688 7.91875C8.2688 7.7875 8.40005 7.65625 8.5313 7.65625C8.7063 7.65625 8.7938 7.7875 8.7938 7.91875C8.7938 8.05 8.66255 8.18125 8.5313 8.18125C8.40005 8.18125 8.2688 8.05 8.2688 7.91875Z" fill="#005BBF"/>
<path d="M8.4438 7.17505V7.3063H8.31255V7.43755H8.4438V7.87505H8.2688V8.0063H8.7938L8.83755 7.9188L8.7938 7.87505H8.6188V7.43755H8.75005V7.3063H8.6188V7.17505H8.4438Z" fill="#C8B100"/>
<path d="M8.5313 11.5063C7.8313 11.5063 7.2188 11.4188 6.73755 11.2876C7.2188 11.1563 7.8313 11.0688 8.5313 11.0688C9.2313 11.0688 9.8438 11.1563 10.325 11.2876C9.88755 11.4188 9.2313 11.5063 8.5313 11.5063Z" fill="#ED4C5C"/>
<path d="M8.57505 19.075C7.7438 19.075 6.9563 18.8562 6.2563 18.55C5.7313 18.2875 5.42505 17.8062 5.42505 17.2375V15.1375H11.725V17.2375C11.725 17.8062 11.375 18.3312 10.8938 18.55C10.1938 18.9 9.4063 19.075 8.57505 19.075ZM8.5313 11.6375H11.6813V15.1375H8.5313V11.6375Z" fill="white"/>
<path d="M8.57505 17.2375C8.57505 18.0687 7.87505 18.725 7.00005 18.725C6.12505 18.725 5.42505 18.0687 5.42505 17.2375V15.1375H8.57505V17.2375Z" fill="#ED4C5C"/>
<path d="M6.08123 18.4625C6.16873 18.5063 6.29998 18.5938 6.47498 18.6375V15.05H6.12498L6.08123 18.4625ZM5.38123 17.1938C5.38123 17.6313 5.55623 17.9813 5.73123 18.1563V15.05H5.38123V17.1938Z" fill="#C8B100"/>
<path d="M6.78125 18.725H7.13125V15.05H6.78125V18.725Z" fill="#C7B500"/>
<path d="M7.4812 18.6375C7.61245 18.5938 7.78745 18.5063 7.87495 18.4625V15.05H7.52495L7.4812 18.6375Z" fill="#C8B100"/>
<path d="M5.38123 11.6375H8.53123V15.1375H5.38123V11.6375Z" fill="#ED4C5C"/>
<path d="M8.22498 18.1562C8.39998 18.025 8.53123 17.7188 8.57498 17.3688V15.0938H8.22498V18.1562Z" fill="#C8B100"/>
<path d="M11.725 15.1374V17.2374C11.725 18.0686 11.025 18.7249 10.15 18.7249C9.27505 18.7249 8.57505 18.0686 8.57505 17.2374V15.1374H11.725ZM10.5875 12.2499C10.7188 12.5124 10.7188 13.1686 10.325 13.0374C10.4125 13.0811 10.4563 13.3874 10.5875 13.5624C10.8063 13.8249 11.0688 13.6061 11.025 13.2999C10.9375 12.8186 10.9813 12.5124 11.0688 12.0311C11.0688 12.0749 11.2875 12.0749 11.375 11.9874C11.3313 12.1186 11.2875 12.2936 11.375 12.2936C11.2875 12.4249 11.0688 12.6436 11.025 12.7749C10.9813 13.0811 11.4625 13.6499 10.9375 13.7811C10.5875 13.8686 10.8063 14.1311 10.9375 14.2624C10.9375 14.2624 10.7625 14.8311 10.85 14.7874C10.5 14.9186 10.5875 14.6124 10.5875 14.6124C10.7625 14.0874 10.2813 14.0436 10.325 13.9561C9.88755 13.9124 10.3688 14.3499 9.97505 14.3499C9.88755 14.3499 9.71255 14.4374 9.71255 14.4374C9.2313 14.3936 9.4938 13.9561 9.6688 13.9999C9.80005 14.0436 9.9313 14.2624 9.9313 13.9561C9.9313 13.9561 9.71255 13.6061 10.2813 13.6061C10.0625 13.6061 9.9313 13.4311 9.8438 13.2124C9.7563 13.2561 9.62505 13.4749 9.1438 13.5186C9.1438 13.5186 9.01255 13.0374 9.1438 13.1249C9.3188 13.2124 9.4063 13.2124 9.5813 13.0374C9.4938 12.9061 8.9688 12.7311 9.0563 12.4249C9.0563 12.3374 9.3188 12.2061 9.3188 12.2061C9.27505 12.4249 9.4063 12.6436 9.6688 12.6436C10.0188 12.6874 9.88755 12.5561 9.9313 12.4686C9.97505 12.3811 10.2375 12.5124 10.15 12.2936C10.15 12.2499 9.8438 12.2061 9.9313 12.0749C10.1063 11.8561 10.3688 12.0311 10.5875 12.2499ZM8.57505 18.6374L8.48755 18.4186L8.57505 18.1561L8.66255 18.4186L8.57505 18.6374Z" fill="#ED4C5C"/>
<path d="M6.3438 12.3812V12.6H6.4313V12.775H6.21255V13.2125H6.3438V14.175H6.0813V14.6563H7.87505V14.175H7.6563V13.2125H7.7438V12.775H7.52505V12.6H7.6563V12.3812H7.2188V12.6H7.3063V12.775H7.08755V12.25H7.2188V12.0312H6.73755V12.25H6.8688V12.775H6.65005V12.6H6.73755V12.3812H6.3438ZM11.2875 17.7625V15.575H9.01255V17.7625L10.0625 18.2438H10.1938L11.2875 17.7625ZM10.0625 15.75V16.4938L9.3188 15.75H10.0625ZM9.1438 15.7937L10.0188 16.6687L9.1438 17.5437V15.7937ZM9.2313 17.7188L10.0625 16.8875V18.1125L9.2313 17.7188ZM10.1938 18.0687V16.8438L11.025 17.675L10.1938 18.0687ZM11.1125 17.5437L10.2375 16.6687L11.1125 15.7937V17.5437ZM10.1938 15.75H10.9375L10.1938 16.4938V15.75Z" fill="#C8B100"/>
<path d="M7.52502 15.0938C7.52502 14.4375 7.96252 13.9563 8.53127 13.9563C9.10002 13.9563 9.53752 14.4813 9.53752 15.0938C9.53752 15.7063 9.10002 16.2313 8.53127 16.2313C7.96252 16.2313 7.52502 15.75 7.52502 15.0938Z" fill="#ED4C5C"/>
<path d="M7.8313 15.0937C7.8313 14.6125 8.13755 14.2625 8.5313 14.2625C8.92505 14.2625 9.2313 14.6562 9.2313 15.0937C9.2313 15.575 8.92505 15.925 8.5313 15.925C8.1813 15.9687 7.8313 15.575 7.8313 15.0937Z" fill="#005BBF"/>
<path d="M8.22505 14.5249L8.05005 15.0062L8.1813 15.0499L8.0938 15.2249H8.3563L8.2688 15.0499L8.40005 15.0062L8.22505 14.5249ZM8.8813 14.5249L8.7063 15.0062L8.83755 15.0499L8.75005 15.2249H9.01255L8.9688 15.0499L9.10005 15.0062L8.8813 14.5249ZM8.57505 15.0937L8.3563 15.5749L8.48755 15.6187L8.4438 15.7937H8.66255L8.6188 15.6187L8.75005 15.5749L8.57505 15.0937Z" fill="#C8B100"/>
</svg>
