<svg width="17" height="18" viewBox="0 0 17 18" fill="none" xmlns="http://www.w3.org/2000/svg">
<g id="carbon:phone-outgoing">
<path id="Vector" d="M13.0588 15.5019L12.9585 15.5021C3.13041 14.9656 1.71376 6.64464 1.50928 4.08785C1.45791 3.2857 2.05843 2.53269 2.91072 2.48124L5.66837 2.47701C6.06949 2.4764 6.47099 2.72648 6.62202 3.12736L7.32681 4.98144C7.47777 5.33218 7.37818 5.78359 7.12795 6.08481L6.07664 7.13934C6.43061 9.09424 7.93709 10.5961 9.89306 10.9441L10.9945 9.88947C11.2949 9.58817 11.6959 9.53742 12.0973 9.68722L14.0037 10.4364C14.3549 10.5863 14.6061 10.9369 14.6068 11.3881L14.6108 13.9953C14.562 14.8478 13.9112 15.5006 13.0588 15.5019ZM3.01253 3.48387C2.7117 3.48433 2.51145 3.6852 2.51191 3.98603L2.51199 4.03617C2.76722 6.994 4.23202 14.0113 13.0071 14.4992C13.308 14.4987 13.5082 14.2979 13.558 14.0471L13.5538 11.3396L11.6474 10.5904L10.1956 12.0467L9.99495 11.9969C5.63199 11.452 5.02364 7.09082 5.02356 7.04068L4.97304 6.79006L6.3747 5.33387L5.66991 3.4798L3.01253 3.48387Z" fill="#491521"/>
<path id="Vector_2" d="M10.0311 2.97185L10.0326 3.97464L12.339 3.9711L9.03493 7.28536L9.73795 7.98623L13.0421 4.67197L13.0456 6.97838L14.0484 6.97684L14.0422 2.9657L10.0311 2.97185Z" fill="#491521"/>
</g>
</svg>
