<svg width="34" height="34" viewBox="0 0 34 34" fill="none" xmlns="http://www.w3.org/2000/svg">
<circle cx="16.8993" cy="16.9099" r="15.8994" transform="rotate(-90 16.8993 16.9099)" stroke="#491521" stroke-width="0.88915"/>
<path d="M23.5427 10.5282C23.3596 10.3731 23.1375 10.2698 22.9 10.2295C22.6625 10.1892 22.4184 10.2132 22.1935 10.299L9.98506 15.053C9.71826 15.1536 9.4922 15.3381 9.34165 15.5783C9.1911 15.8185 9.12438 16.1009 9.15176 16.3823C9.17625 16.6648 9.29264 16.9317 9.48345 17.1431C9.67425 17.3544 9.92917 17.4988 10.2099 17.5544L13.1 18.1241V21.7453C13.0986 22.0044 13.1752 22.2581 13.3201 22.4739C13.465 22.6897 13.6716 22.8578 13.9135 22.9567C14.0753 23.0213 14.2482 23.0547 14.4227 23.055C14.5963 23.0557 14.7684 23.0219 14.9285 22.9555C15.0887 22.8891 15.2338 22.7916 15.3552 22.6686L16.8961 21.1429L19.3167 23.2514C19.5551 23.4621 19.8635 23.5786 20.183 23.5788C20.3225 23.58 20.4611 23.5579 20.5931 23.5133C20.8114 23.4451 21.0081 23.3216 21.1635 23.1551C21.3189 22.9886 21.4278 22.7848 21.4793 22.5638L23.9659 11.8116C24.0198 11.5798 24.0088 11.3379 23.9342 11.1117C23.8597 10.8856 23.7243 10.6839 23.5427 10.5282ZM17.8551 13.6779L13.7084 16.6442L11.407 16.1859L17.8551 13.6779ZM14.6872 21.1101V19.2177L15.7057 20.1017L14.6872 21.1101ZM20.0309 21.7846L15.1634 17.5413L22.1737 12.5319L20.0309 21.7846Z" fill="#491521" stroke="#F9F9F9" stroke-width="0.444575"/>
</svg>
