<svg width="28" height="28" viewBox="0 0 28 28" fill="none" xmlns="http://www.w3.org/2000/svg">
<path d="M21.0353 2.8875C18.9756 1.61875 16.6091 0.875 14.0234 0.875V2.8875H21.0353Z" fill="#ED4C5C"/>
<path d="M14.0234 4.89971H23.4895C22.7445 4.15596 21.9118 3.45596 21.0353 2.88721H14.0234V4.89971Z" fill="white"/>
<path d="M14.0234 6.9124H25.111C24.6289 6.16865 24.1031 5.5124 23.5333 4.8999H14.0234V6.9124Z" fill="#ED4C5C"/>
<path d="M14.0234 8.9251H26.1628C25.856 8.2251 25.5054 7.5251 25.111 6.9126H14.0234V8.9251Z" fill="white"/>
<path d="M14.0234 10.9378H26.8202C26.6449 10.2378 26.4257 9.58154 26.1628 8.92529H14.0234V10.9378Z" fill="#ED4C5C"/>
<path d="M14.0234 12.9935H27.1269C27.0831 12.2935 26.9516 11.6372 26.8202 10.981H14.0234V12.9935Z" fill="white"/>
<path d="M27.1278 12.9937H14.0243V13.9999H0.876953C0.876953 14.3499 0.876953 14.6562 0.920777 15.0062H27.1278C27.1716 14.6562 27.1716 14.3499 27.1716 13.9999C27.1716 13.6499 27.1716 13.2999 27.1278 12.9937Z" fill="#ED4C5C"/>
<path d="M1.22865 17.0188H26.8221C26.9974 16.3626 27.085 15.7063 27.1289 15.0063H0.921875C0.965699 15.6626 1.05335 16.3626 1.22865 17.0188Z" fill="white"/>
<path d="M1.88588 19.0315H26.1646C26.4276 18.3753 26.6467 17.719 26.822 17.019H1.22852C1.40381 17.719 1.62294 18.3753 1.88588 19.0315Z" fill="#ED4C5C"/>
<path d="M2.93655 21.0437H25.1117C25.5061 20.3875 25.8567 19.7312 26.1635 19.0312H1.88477C2.19154 19.7312 2.54213 20.3875 2.93655 21.0437Z" fill="white"/>
<path d="M4.51518 23.056H23.535C24.1047 22.4435 24.6744 21.7435 25.1126 21.0435H2.9375C3.37574 21.7872 3.94546 22.4435 4.51518 23.056Z" fill="#ED4C5C"/>
<path d="M6.96784 25.0687H21.0793C21.9996 24.4999 22.7884 23.7999 23.5335 23.0562H4.51367C5.25869 23.8437 6.09135 24.4999 6.96784 25.0687Z" fill="white"/>
<path d="M14.0245 27.1251C16.6101 27.1251 19.0205 26.3813 21.0802 25.0688H6.96875C9.0285 26.3813 11.4388 27.1251 14.0245 27.1251Z" fill="#ED4C5C"/>
<path d="M7.01237 2.8875C6.09206 3.45625 5.25939 4.15625 4.51438 4.9C3.90084 5.5125 3.37494 6.2125 2.9367 6.9125C2.54228 7.56875 2.14786 8.225 1.88491 8.925C1.62197 9.58125 1.40285 10.2375 1.22755 10.9375C1.05225 11.5938 0.964602 12.25 0.920777 12.95C0.876953 13.3 0.876953 13.65 0.876953 14H14.0243V0.875C11.4386 0.875 9.07212 1.61875 7.01237 2.8875Z" fill="#428BC1"/>
<path d="M10.9562 1.3125L11.1753 1.96875H11.8327L11.3068 2.40625L11.4821 3.0625L10.9562 2.66875L10.4303 3.0625L10.6056 2.40625L10.0797 1.96875H10.7371L10.9562 1.3125ZM12.7092 3.9375L12.9283 4.59375H13.5856L13.0598 5.03125L13.2351 5.6875L12.7092 5.29375L12.1833 5.6875L12.3586 5.03125L11.8327 4.59375H12.49L12.7092 3.9375ZM9.20321 3.9375L9.42233 4.59375H10.0797L9.5538 5.03125L9.7291 5.6875L9.20321 5.29375L8.67731 5.6875L8.85261 5.03125L8.32672 4.59375H8.98409L9.20321 3.9375ZM10.9562 6.5625L11.1753 7.21875H11.8327L11.3068 7.65625L11.4821 8.3125L10.9562 7.91875L10.4303 8.3125L10.6056 7.65625L10.0797 7.21875H10.7371L10.9562 6.5625ZM7.45023 6.5625L7.66935 7.21875H8.32672L7.80083 7.65625L7.97613 8.3125L7.45023 7.91875L6.92434 8.3125L7.09964 7.65625L6.57374 7.21875H7.23111L7.45023 6.5625ZM3.94428 6.5625L4.1634 7.21875H4.82077L4.29487 7.65625L4.47017 8.3125L3.94428 7.91875L3.41839 8.3125L3.59368 7.65625L3.06779 7.21875H3.72516L3.94428 6.5625ZM12.7092 9.1875L12.9283 9.84375H13.5856L13.0598 10.2812L13.2351 10.9375L12.7092 10.5437L12.1833 10.9375L12.3586 10.2812L11.8327 9.84375H12.49L12.7092 9.1875ZM9.20321 9.1875L9.42233 9.84375H10.0797L9.5538 10.2812L9.7291 10.9375L9.20321 10.5437L8.67731 10.9375L8.85261 10.2812L8.32672 9.84375H8.98409L9.20321 9.1875ZM5.69726 9.1875L5.91638 9.84375H6.57374L6.04785 10.2812L6.22315 10.9375L5.69726 10.5437L5.17136 10.9375L5.34666 10.2812L4.82077 9.84375H5.47813L5.69726 9.1875ZM10.9562 11.8125L11.1753 12.4688H11.8327L11.3068 12.9062L11.4821 13.5625L10.9562 13.1687L10.4303 13.5625L10.6056 12.9062L10.0797 12.4688H10.7371L10.9562 11.8125ZM7.45023 11.8125L7.66935 12.4688H8.32672L7.80083 12.9062L7.97613 13.5625L7.45023 13.1687L6.92434 13.5625L7.09964 12.9062L6.57374 12.4688H7.23111L7.45023 11.8125ZM3.94428 11.8125L4.1634 12.4688H4.82077L4.29487 12.9062L4.47017 13.5625L3.94428 13.1687L3.41839 13.5625L3.59368 12.9062L3.06779 12.4688H3.72516L3.94428 11.8125ZM5.17136 5.6875L5.69726 5.29375L6.22315 5.6875L6.00403 5.03125L6.52992 4.59375H5.87255L5.69726 3.9375L5.47813 4.59375H4.86459L5.39048 4.9875L5.17136 5.6875ZM1.66541 10.9375L2.1913 10.5437L2.7172 10.9375L2.49807 10.2812L3.02397 9.84375H2.41042L2.1913 9.1875L1.97218 9.84375H1.53394C1.53394 9.8875 1.49011 9.93125 1.49011 9.975L1.84071 10.2375L1.66541 10.9375Z" fill="white"/>
</svg>
