<svg width="20" height="20" viewBox="0 0 20 20" fill="none" xmlns="http://www.w3.org/2000/svg">
<path d="M7.5982 0.388C7.2506 0.388 6.88964 0.508321 6.63564 0.76233C6.38163 1.01634 6.26131 1.3773 6.26131 1.72489V2.39334H0.2453V15.7622H7.73188C7.64499 15.3344 7.5982 14.8866 7.5982 14.4253H1.58219V10.0403C1.97657 10.2676 2.43112 10.4147 2.91908 10.4147H8.94177C9.3161 9.90666 9.77064 9.45212 10.2787 9.07779H2.91908C2.12363 9.07779 1.58219 8.53635 1.58219 7.7409V3.73023H16.288V7.7409C16.288 7.84785 16.2813 7.94811 16.2612 8.0417C16.7425 8.18875 17.1971 8.38929 17.6249 8.63661V2.39334H11.6089V1.72489C11.6089 1.3773 11.4885 1.01634 11.2345 0.76233C10.9805 0.508321 10.6196 0.388 10.272 0.388H7.5982ZM7.5982 1.72489H10.272V2.39334H7.5982V1.72489ZM4.25597 6.40401V8.40934H5.59286V6.40401H4.25597ZM12.2773 6.40401V8.04838C12.7126 7.91234 13.1605 7.82052 13.6142 7.77432V6.40401H12.2773ZM14.2826 9.07779C11.3348 9.07779 8.93509 11.4775 8.93509 14.4253C8.93509 17.3732 11.3348 19.7729 14.2826 19.7729C17.2305 19.7729 19.6302 17.3732 19.6302 14.4253C19.6302 11.4775 17.2305 9.07779 14.2826 9.07779ZM14.2826 10.4147C16.5019 10.4147 18.2933 12.2061 18.2933 14.4253C18.2933 16.6446 16.5019 18.436 14.2826 18.436C12.0634 18.436 10.272 16.6446 10.272 14.4253C10.272 12.2061 12.0634 10.4147 14.2826 10.4147ZM13.6142 11.0831V15.0938H16.9564V13.7569H14.9511V11.0831H13.6142Z" fill="#491521"/>
</svg>
