<svg width="34" height="34" viewBox="0 0 34 34" fill="none" xmlns="http://www.w3.org/2000/svg">
<circle cx="16.8995" cy="16.9099" r="15.8994" transform="rotate(-90 16.8995 16.9099)" stroke="#491521" stroke-width="0.88915"/>
<path d="M20.0032 16.4956L16.1937 14.0714C16.0981 14.0105 15.9869 13.9755 15.8721 13.9702C15.7572 13.9649 15.643 13.9894 15.5417 14.0412C15.4403 14.093 15.3556 14.1701 15.2965 14.2643C15.2375 14.3585 15.2063 14.4662 15.2064 14.5759V19.4244C15.2063 19.5342 15.2375 19.6419 15.2965 19.736C15.3556 19.8302 15.4403 19.9073 15.5417 19.9591C15.643 20.0109 15.7572 20.0355 15.8721 20.0302C15.9869 20.0248 16.0981 19.9899 16.1937 19.929L20.0032 17.5047C20.0903 17.4494 20.1618 17.3744 20.2112 17.2864C20.2606 17.1983 20.2864 17.1 20.2864 17.0002C20.2864 16.9003 20.2606 16.802 20.2112 16.714C20.1618 16.626 20.0903 16.5509 20.0032 16.4956ZM16.4763 18.2918V15.7123L18.5064 17.0002L16.4763 18.2918ZM25.5501 12.5699C25.4753 12.2906 25.332 12.0323 25.1321 11.8163C24.9321 11.6002 24.6812 11.4327 24.4001 11.3274C21.6794 10.3244 17.3493 10.3335 17.1112 10.3335C16.8731 10.3335 12.5429 10.3244 9.82229 11.3274C9.54115 11.4327 9.29025 11.6002 9.0903 11.8163C8.89035 12.0323 8.74707 12.2906 8.67229 12.5699C8.46673 13.3259 8.22229 14.7077 8.22229 17.0002C8.22229 19.2926 8.46673 20.6744 8.67229 21.4305C8.74696 21.7099 8.89019 21.9683 9.09015 22.1845C9.2901 22.4007 9.54106 22.5683 9.82229 22.6736C12.4286 23.6335 16.508 23.6668 17.0588 23.6668H17.1636C17.7144 23.6668 21.7961 23.6335 24.4001 22.6736C24.6813 22.5683 24.9323 22.4007 25.1322 22.1845C25.3322 21.9683 25.4754 21.7099 25.5501 21.4305C25.7556 20.6729 26.0001 19.2926 26.0001 17.0002C26.0001 14.7077 25.7556 13.3259 25.5501 12.5699ZM24.3207 21.1305C24.2965 21.2234 24.2496 21.3096 24.1838 21.3819C24.118 21.4542 24.0352 21.5105 23.9421 21.5464C21.4302 22.4721 17.158 22.4555 17.1167 22.4555H17.1112C17.0683 22.4555 12.7993 22.4706 10.2858 21.5464C10.1927 21.5105 10.1099 21.4542 10.0441 21.3819C9.97832 21.3096 9.9314 21.2234 9.90721 21.1305C9.71435 20.4388 9.49213 19.1646 9.49213 17.0002C9.49213 14.8358 9.71435 13.5615 9.90166 12.8736C9.92539 12.7802 9.97211 12.6934 10.0379 12.6205C10.1038 12.5477 10.1868 12.4908 10.2802 12.4547C12.7024 11.5615 16.7612 11.5456 17.0937 11.5456H17.1151C17.158 11.5456 21.431 11.532 23.9405 12.4547C24.0336 12.4906 24.1164 12.5469 24.1822 12.6192C24.248 12.6915 24.2949 12.7777 24.3191 12.8706C24.508 13.5615 24.7302 14.8358 24.7302 17.0002C24.7302 19.1646 24.508 20.4388 24.3207 21.1267V21.1305Z" fill="#491521"/>
</svg>
